<svg id="Capa_1" enable-background="new 0 0 512 512" height="512" viewBox="0 0 512 512" width="512" xmlns="http://www.w3.org/2000/svg" xmlns:xlink="http://www.w3.org/1999/xlink"><linearGradient id="lg1"><stop offset="0" stop-color="#008a4c"/><stop offset="1" stop-color="#d3ff33"/></linearGradient><linearGradient id="SVGID_1_" gradientUnits="userSpaceOnUse" x1="74.98" x2="437.019" xlink:href="#lg1" y1="437.019" y2="74.98"/><radialGradient id="SVGID_2_" cx="256" cy="255.999" gradientUnits="userSpaceOnUse" r="256"><stop offset="0" stop-color="#008a4c" stop-opacity=".8"/><stop offset="1" stop-color="#d3ff33" stop-opacity="0"/></radialGradient><linearGradient id="SVGID_3_" gradientTransform="matrix(-.398 -.398 .398 -.398 277.323 390.211)" gradientUnits="userSpaceOnUse" x1="194.167" x2="194.167" xlink:href="#lg1" y1="-408.38" y2="686.909"/><linearGradient id="lg2"><stop offset="0" stop-color="#008a4c" stop-opacity=".8"/><stop offset=".0508" stop-color="#239e48" stop-opacity=".759"/><stop offset=".1203" stop-color="#4cb443" stop-opacity=".704"/><stop offset=".196" stop-color="#71c83f" stop-opacity=".643"/><stop offset=".2774" stop-color="#8fd93b" stop-opacity=".578"/><stop offset=".366" stop-color="#a8e738" stop-opacity=".507"/><stop offset=".4648" stop-color="#bbf236" stop-opacity=".428"/><stop offset=".5796" stop-color="#c9f934" stop-opacity=".336"/><stop offset=".7247" stop-color="#d1fe33" stop-opacity=".22"/><stop offset="1" stop-color="#d3ff33" stop-opacity="0"/></linearGradient><linearGradient id="SVGID_4_" gradientTransform="matrix(-.398 -.398 .398 -.398 277.323 390.211)" gradientUnits="userSpaceOnUse" x1="-53.632" x2="404.29" xlink:href="#lg2" y1="143.172" y2="143.172"/><linearGradient id="SVGID_5_" gradientTransform="matrix(-.398 .398 -.398 -.398 441.249 185.668)" gradientUnits="userSpaceOnUse" x1="72.021" x2="529.941" xlink:href="#lg2" y1="143.13" y2="143.13"/><linearGradient id="SVGID_6_" gradientTransform="matrix(.398 .398 -.398 .398 236.705 21.742)" gradientUnits="userSpaceOnUse" x1="72.063" x2="529.985" xlink:href="#lg2" y1="268.781" y2="268.781"/><linearGradient id="SVGID_7_" gradientTransform="matrix(.398 -.398 .398 .398 72.78 226.286)" gradientUnits="userSpaceOnUse" x1="-53.588" x2="404.332" xlink:href="#lg2" y1="268.824" y2="268.824"/><linearGradient id="SVGID_8_" gradientUnits="userSpaceOnUse" x1="-91.066" x2="503.68" y1="603.066" y2="8.32"><stop offset="0" stop-color="#ddff59"/><stop offset="1" stop-color="#fff"/></linearGradient><linearGradient id="lg3"><stop offset="0" stop-color="#008547"/><stop offset=".1212" stop-color="#128f45"/><stop offset=".3647" stop-color="#41aa41"/><stop offset=".7046" stop-color="#8cd63a"/><stop offset="1" stop-color="#d3ff33"/></linearGradient><linearGradient id="SVGID_9_" gradientUnits="userSpaceOnUse" x1="49.405" x2="235.386" xlink:href="#lg3" y1="292.654" y2="106.673"/><linearGradient id="SVGID_10_" gradientUnits="userSpaceOnUse" x1="55.68" x2="280.921" xlink:href="#lg3" y1="286.607" y2="61.366"/><linearGradient id="SVGID_11_" gradientUnits="userSpaceOnUse" x1="365.413" x2="551.395" xlink:href="#lg3" y1="316.53" y2="130.548"/><linearGradient id="SVGID_12_" gradientUnits="userSpaceOnUse" x1="372.409" x2="580.511" xlink:href="#lg3" y1="309.785" y2="101.682"/><linearGradient id="SVGID_13_" gradientUnits="userSpaceOnUse" x1="198.562" x2="384.545" xlink:href="#lg3" y1="143.496" y2="-42.487"/><linearGradient id="SVGID_14_" gradientUnits="userSpaceOnUse" x1="213.511" x2="388.642" xlink:href="#lg3" y1="128.858" y2="-46.273"/><linearGradient id="SVGID_15_" gradientUnits="userSpaceOnUse" x1="211.445" x2="397.426" xlink:href="#lg3" y1="470.497" y2="284.516"/><linearGradient id="SVGID_16_" gradientUnits="userSpaceOnUse" x1="215.065" x2="439.128" xlink:href="#lg3" y1="467.171" y2="243.109"/><g><circle cx="256" cy="256" fill="url(#SVGID_1_)" r="256"/><circle cx="256" cy="256" fill="url(#SVGID_2_)" r="256"/><path d="m257.023 86.842c55.485 56.389 112.773 113.671 169.151 169.135-56.378 55.462-113.665 112.744-169.151 169.134-55.463-56.367-112.74-113.649-169.118-169.134 56.379-55.486 113.655-112.768 169.118-169.135z" fill="url(#SVGID_3_)"/><path d="m257.023 86.842c55.485 56.389 112.773 113.671 169.151 169.135-56.378 55.462-113.665 112.744-169.151 169.134-55.463-56.367-112.74-113.649-169.118-169.134 56.379-55.486 113.655-112.768 169.118-169.135z" fill="url(#SVGID_4_)"/><path d="m87.905 255.977c56.378-55.485 113.655-112.767 169.118-169.135 55.485 56.389 112.773 113.671 169.151 169.135-56.378 55.462-113.665 112.744-169.151 169.134-55.463-56.368-112.74-113.649-169.118-169.134z" fill="url(#SVGID_5_)"/><path d="m257.023 425.11c-55.463-56.367-112.74-113.649-169.118-169.134 56.378-55.485 113.655-112.767 169.118-169.135 55.485 56.389 112.773 113.671 169.151 169.135-56.378 55.463-113.666 112.745-169.151 169.134z" fill="url(#SVGID_6_)"/><path d="m426.174 255.977c-56.378 55.462-113.665 112.744-169.151 169.134-55.463-56.367-112.74-113.649-169.118-169.134 56.378-55.485 113.655-112.767 169.118-169.135 55.485 56.389 112.772 113.671 169.151 169.135z" fill="url(#SVGID_7_)"/><path d="m431.583 250.658c-56.776-55.797-114.444-113.464-170.241-170.241-3.561-.004-7.122-.004-10.684 0-55.797 56.776-113.465 114.444-170.241 170.241-.004 3.561-.004 7.123 0 10.684 56.776 55.797 114.444 113.464 170.241 170.241 3.561.004 7.122.004 10.684 0 55.797-56.777 113.464-114.444 170.241-170.241.004-3.561.004-7.123 0-10.684zm-183.27-2.345c-47.966.003-95.932.036-143.898.099 48.029-47.412 96.584-95.968 143.997-143.997-.063 47.966-.096 95.932-.099 143.898zm15.275-143.898c47.412 48.029 95.968 96.584 143.997 143.997-47.966-.063-95.932-.096-143.898-.099-.003-47.966-.036-95.932-.099-143.898zm-15.275 159.272c.003 47.966.036 95.931.099 143.897-47.413-48.028-95.968-96.584-143.997-143.996 47.966.063 95.932.096 143.898.099zm15.374 0c47.966-.003 95.932-.036 143.898-.099-48.029 47.412-96.584 95.968-143.997 143.997.063-47.966.096-95.932.099-143.898z" fill="url(#SVGID_8_)"/><path d="m124.288 256.001c-.006 21.045-17.091 37.993-38.297 37.813-21.201-.19-38.577-17.139-38.578-37.814.001-20.673 17.377-37.625 38.578-37.814 21.206-.181 38.29 16.771 38.297 37.815z" fill="url(#SVGID_9_)"/><path d="m93.559 271.148c-21.22-.091-38.513-16.976-38.399-37.688-4.858 6.304-7.747 14.099-7.747 22.541.001 20.673 17.377 37.625 38.578 37.814 21.206.179 38.29-16.77 38.297-37.813-7.013 9.247-18.156 15.184-30.729 15.146z" fill="url(#SVGID_10_)"/><path d="m464.588 256c-.002 20.674-17.378 37.626-38.578 37.814-21.206.181-38.291-16.77-38.297-37.814.007-21.042 17.091-37.996 38.297-37.814 21.2.188 38.576 17.139 38.578 37.814z" fill="url(#SVGID_11_)"/><path d="m433.814 271.102c-21.225.09-38.377-16.894-38.456-37.914-4.801 6.336-7.646 14.24-7.646 22.811.007 21.043 17.091 37.996 38.297 37.814 21.2-.189 38.576-17.139 38.578-37.813-7.014 9.104-18.202 15.06-30.773 15.102z" fill="url(#SVGID_12_)"/><path d="m293.814 85.991c.181 21.205-16.77 38.291-37.814 38.297-21.044-.005-37.994-17.09-37.814-38.297.188-21.201 17.14-38.578 37.814-38.578s37.625 17.377 37.814 38.578z" fill="url(#SVGID_13_)"/><path d="m263.584 101.23c-20.969-.034-37.861-17.127-37.691-38.34-4.767 6.453-7.643 14.454-7.707 23.101-.182 21.205 16.77 38.291 37.814 38.297 21.043-.006 37.994-17.091 37.814-38.296-6.828 9.274-17.821 15.255-30.23 15.238z" fill="url(#SVGID_14_)"/><path d="m293.814 426.009c-.188 21.2-17.14 38.579-37.814 38.578-20.674.001-37.625-17.378-37.814-38.578-.182-21.206 16.77-38.291 37.814-38.297 21.044.007 37.995 17.092 37.814 38.297z" fill="url(#SVGID_15_)"/><path d="m263.539 441.519c-20.786.032-37.78-17.301-37.916-38.509-4.735 6.396-7.501 14.353-7.437 22.999.188 21.2 17.14 38.579 37.814 38.578s37.624-17.376 37.814-38.578c-6.972 9.379-17.947 15.491-30.275 15.51z" fill="url(#SVGID_16_)"/></g></svg>